<svg xmlns="http://www.w3.org/2000/svg" version="1.1" xmlns:xlink="http://www.w3.org/1999/xlink" xmlns:svgjs="http://svgjs.dev/svgjs" width="1500" height="1500" viewBox="0 0 1500 1500"><rect width="1500" height="1500" fill="#4f46e5"></rect><g transform="matrix(0.6666666666666666,0,0,0.6666666666666666,249.39393939393938,438.5856950067477)"><svg viewBox="0 0 396 247" data-background-color="#4f46e5" preserveAspectRatio="xMidYMid meet" height="935" width="1500" xmlns="http://www.w3.org/2000/svg" xmlns:xlink="http://www.w3.org/1999/xlink"><g id="tight-bounds" transform="matrix(1,0,0,1,0.2400000000000091,-0.09999999999999432)"><svg viewBox="0 0 395.52 247.2" height="247.2" width="395.52"><g><svg></svg></g><g><svg viewBox="0 0 395.52 247.2" height="247.2" width="395.52"><g transform="matrix(1,0,0,1,75.54432,71.7245565019351)"><svg viewBox="0 0 244.43135999999998 103.75088699612981" height="103.75088699612981" width="244.43135999999998"><g><svg viewBox="0 0 244.43135999999998 103.75088699612981" height="103.75088699612981" width="244.43135999999998"><g><svg viewBox="0 0 359.916740721927 152.7696" height="103.75088699612981" width="244.43135999999998"><g transform="matrix(1,0,0,1,148.45364317424307,0)"><svg viewBox="0 0 211.46309754768396 152.7696" height="152.7696" width="211.46309754768396"><g id="textblocktransform"><svg viewBox="0 0 211.46309754768396 152.7696" height="152.7696" width="211.46309754768396" id="textblock"><g><svg viewBox="0 0 211.46309754768396 152.7696" height="152.7696" width="211.46309754768396"><g transform="matrix(1,0,0,1,0,0)"><svg width="211.46309754768396" viewBox="0.6 -36.15 50.8 36.699999999999996" height="152.7696" data-palette-color="#000000"><g class="wordmark-text-0" data-fill-palette-color="primary" id="text-0"><path d="M10.3 0L0.6-26.3 6-26.3 10.5-13.7Q11.4-11.2 12.95-5.55L12.95-5.55 13.2-5.55Q14.65-10.9 15.65-13.7L15.65-13.7 20.1-26.3 25.25-26.3 15.55 0 10.3 0ZM29.25-30.9L29.25-36.15 34.35-36.15 34.35-30.9 29.25-30.9ZM29.25 0L29.25-26.3 34.4-26.3 34.4 0 29.25 0ZM47.5 0.55Q44.5 0.55 43.15-1.18 41.8-2.9 41.8-5.45L41.8-5.45 41.8-22.05 38.59-22.05 38.59-26.3 41.84-26.3 42.84-33.65 46.95-33.65 46.95-26.3 51.4-26.3 51.4-22.05 46.95-22.05 46.95-5.95Q46.95-3.65 49.09-3.65L49.09-3.65 51.4-3.65 51.4-0.15Q50.75 0.15 49.62 0.35 48.5 0.55 47.5 0.55L47.5 0.55Z" fill="#000000" data-fill-palette-color="primary"></path></g></svg></g></svg></g></svg></g></svg></g><g transform="matrix(1,0,0,1,0,33.263553531760216)"><svg viewBox="0 0 112.38840708464306 86.24249293647956" height="86.24249293647956" width="112.38840708464306"><g><svg xmlns="http://www.w3.org/2000/svg" xmlns:sodipodi="http://sodipodi.sourceforge.net/DTD/sodipodi-0.dtd" viewBox="5 15.9375 90 69.0625" x="0" y="0" height="86.24249293647956" width="112.38840708464306" class="icon-icon-0" data-fill-palette-color="accent" id="icon-0"><path d="M15.469 15.938C9.689 15.938 5 20.627 5 26.406L5 74.531C5 80.311 9.689 85 15.469 85L84.531 85C90.311 85 95 80.311 95 74.531L95 26.406C95 20.627 90.311 15.938 84.531 15.938L15.469 15.938zM15.469 19.063L84.531 19.063C88.577 19.063 91.875 22.36 91.875 26.406L91.875 29.25 8.125 29.25 8.125 26.406C8.125 22.36 11.423 19.063 15.469 19.063zM14.781 33.844L20.188 39.313 14.781 44.75 12.063 43.156 16.094 39.313 12.063 35.406 14.781 33.844zM23.5 41.594L32.563 41.594 32.563 44.75 23.5 44.75 23.5 41.594z" fill="#000000" data-fill-palette-color="accent"></path></svg></g></svg></g></svg></g></svg></g></svg></g><path d="M228.796 65.725L228.796 14.893 11.382 14.893 11.382 232.307 228.796 232.307 228.796 181.475 219.44 181.475 219.44 222.951 20.738 222.951 20.738 24.249 219.44 24.249 219.44 65.725Z" fill="#000000" stroke="transparent" data-fill-palette-color="tertiary"></path></svg></g><defs></defs></svg><rect width="395.52" height="247.2" fill="none" stroke="none" visibility="hidden"></rect></g></svg></g></svg>